<svg version="1.2" xmlns="http://www.w3.org/2000/svg" viewBox="0 0 508 113" width="508" height="113">
	<title>YouTube-White-Full-Color-logo-svg</title>
	<style>
		.s0 { fill: #ff0000 } 
		.s1 { fill: #ffffff } 
	</style>
	<path id="Layer" class="s0" d="m162 56.7c0 0 0 26.3-3.4 39q-0.7 2.6-2 4.9-1.4 2.3-3.3 4.2-1.8 1.8-4.1 3.2-2.4 1.3-4.9 2c-12.7 3.4-63.3 3.4-63.3 3.4 0 0-50.7 0-63.3-3.4q-2.6-0.7-4.9-2-2.3-1.4-4.2-3.2-1.9-1.9-3.2-4.2-1.3-2.3-2-4.9c-3.4-12.7-3.4-39-3.4-39 0 0 0-26.4 3.4-39q0.7-2.6 2-4.9 1.3-2.3 3.2-4.2 1.9-1.9 4.2-3.2 2.3-1.3 4.9-2c12.6-3.4 63.3-3.4 63.3-3.4 0 0 50.6 0 63.3 3.4q2.5 0.7 4.9 2 2.3 1.3 4.1 3.2 1.9 1.9 3.3 4.2 1.3 2.3 2 4.9c3.4 12.6 3.4 39 3.4 39z"/>
	<path id="Layer" fill-rule="evenodd" class="s1" d="m64.8 32.4l42.1 24.3-42.1 24.3zm170.3 70.7q-4.8-3.2-6.8-10-2-6.9-2-18.2v-10.3q0-11.5 2.3-18.4 2.3-7 7.2-10.2 4.9-3.2 12.9-3.2 7.9 0 12.7 3.3 4.7 3.2 6.9 10.1 2.2 6.9 2.2 18.4v10.3q0 11.3-2.1 18.2-2.2 6.9-7 10.1-4.8 3.2-13 3.2-8.5 0-13.3-3.3zm18-11.1q1.3-3.4 1.3-11.3v-22.2q0-7.6-1.3-11.1-1.4-3.6-4.7-3.6-3.3 0-4.6 3.6-1.3 3.5-1.3 11.1v22.2q0 7.9 1.2 11.3 1.3 3.5 4.7 3.5 3.3 0 4.7-3.5zm228-16.9v3.5q0 6.9 0.4 10.3 0.4 3.4 1.7 5 1.3 1.5 4 1.5 3.6 0 4.9-2.7 1.3-2.8 1.4-9.3l13.8 0.8q0.1 0.9 0.1 2.6 0 9.8-5.4 14.7-5.3 4.8-15.2 4.8-11.8 0-16.5-7.4-4.8-7.4-4.8-22.9v-12.4q0-16 4.9-23.4 4.9-7.3 16.9-7.3 8.2 0 12.6 3 4.4 3 6.2 9.4 1.8 6.4 1.8 17.6v12.2zm2-29.9q-1.2 1.5-1.6 4.9-0.4 3.4-0.4 10.4v5.1h11.7v-5.1q0-6.9-0.5-10.4-0.4-3.5-1.6-5-1.3-1.4-3.8-1.4-2.6 0-3.8 1.5zm-287 28.5l-18.1-65.7h15.8l6.4 29.8q2.4 11 3.6 18.8h0.5q0.8-5.6 3.5-18.7l6.6-29.9h15.9l-18.4 65.7v31.5h-15.8c0 0 0-31.5 0-31.5zm126-39.5v71h-12.5l-1.4-8.7h-0.4q-5.1 9.9-15.3 9.9-7 0-10.4-4.6-3.4-4.7-3.4-14.5v-53.1h16v52.1q0 4.8 1.1 6.8 1 2.1 3.5 2.1 2 0 3.9-1.3 2-1.3 2.9-3.3v-56.4c0 0 16 0 16 0zm82 0v71h-12.5l-1.4-8.7h-0.4q-5.1 9.9-15.3 9.9-7 0-10.4-4.6-3.4-4.7-3.4-14.5v-53.1h16v52.1q0 4.8 1.1 6.8 1 2.1 3.4 2.1 2.1 0 4-1.3 2-1.3 2.9-3.3v-56.4c0 0 16 0 16 0z"/>
	<path id="Layer" fill-rule="evenodd" class="s1" d="m365.6 20.9h-15.9v84.3h-15.7v-84.3h-15.8v-12.9h47.4zm92.9 43.4v11.2q0 15.9-3.9 23.3-3.8 7.5-11.9 7.5-4.5 0-8.2-2.1-3.7-2.1-5.6-5.6h-0.3l-1.6 6.7h-13.2v-100.8h15.4v37.4h0.1q0.5-1 1.1-1.9 0.6-0.9 1.4-1.7 0.7-0.9 1.6-1.6 0.8-0.7 1.8-1.3 3.8-2.5 8.2-2.5 5.7 0 8.9 3 3.3 3 4.7 9.7 1.5 6.7 1.5 18.7zm-16.1 1.1q0-8.3-0.6-12.8-0.5-4.5-1.8-6.5-1.3-1.9-3.8-1.9-2.3 0-4.3 1.9-1.9 1.8-2.7 4.7v40.4q1 1.8 2.7 2.7 0.4 0.3 0.8 0.4 0.5 0.2 0.9 0.3 0.5 0.1 1 0.2 0.5 0.1 0.9 0.1 2.6 0 4.1-1.9 1.5-1.8 2.1-6.3 0.7-4.4 0.7-12.1z"/>
</svg>